<svg height="100px" width="100px" version="1.1" id="Layer_1" xmlns="http://www.w3.org/2000/svg" xmlns:xlink="http://www.w3.org/1999/xlink" 
	 viewBox="0 0 512 512" xml:space="preserve">
<path style="fill:#8ED7E0;" d="M329.48,152.541V79.784H182.996v72.757c-64.541,28.243-109.643,92.656-109.643,167.614
	c0,101.005,81.88,182.885,182.885,182.885s182.885-81.88,182.885-182.885C439.123,245.197,394.021,180.784,329.48,152.541z"/>
<path style="fill:#7CC3D1;" d="M129.781,320.155c0-74.958,31.185-139.371,75.813-167.614V79.784h-22.598v72.757
	c-64.541,28.243-109.643,92.656-109.643,167.614c0,101.005,81.88,182.885,182.885,182.885
	C186.398,503.04,129.781,421.16,129.781,320.155z"/>
<path style="fill:#8ED7E0;" d="M324.474,79.784H188.002c-19.425,0-35.171-15.747-35.171-35.171l0,0
	c0-19.425,15.747-35.171,35.171-35.171h136.471c19.425,0,35.171,15.747,35.171,35.171l0,0
	C359.645,64.037,343.897,79.784,324.474,79.784z"/>
<path style="fill:#7CC3D1;" d="M209.259,44.613L209.259,44.613c0-19.425,15.747-35.171,35.171-35.171h-56.429
	c-19.425,0-35.171,15.747-35.171,35.171l0,0c0,19.425,15.747,35.171,35.171,35.171h56.429
	C225.006,79.784,209.259,64.037,209.259,44.613z"/>
<path style="fill:#D37250;" d="M388.824,320.151c0,9.679-1.043,19.112-3.03,28.202c-64.28-0.417-96.922-14.316-129.553-28.202
	c32.63-13.886,65.273-27.773,129.54-28.202C387.782,301.101,388.824,310.546,388.824,320.151z"/>
<path style="fill:#E88158;" d="M385.794,348.353c-12.954,59.606-66.12,104.393-129.553,104.393
	c-73.112,0-132.595-59.483-132.595-132.595c0-9.605,1.043-19.051,3.042-28.202c64.28,0.429,96.922,14.316,129.553,28.202
	C288.872,334.038,321.515,347.936,385.794,348.353z"/>
<g>
	<circle style="fill:#EF9D95;" cx="199.401" cy="368.013" r="24.948"/>
	<circle style="fill:#EF9D95;" cx="287.356" cy="384.819" r="18.847"/>
</g>
<path d="M438.718,260.51c-1.57-4.833-6.76-7.476-11.594-5.907c-4.832,1.57-7.477,6.762-5.905,11.594
	c5.617,17.284,8.466,35.357,8.466,53.718c0,95.77-77.916,173.685-173.685,173.685S82.314,415.685,82.314,319.915
	c0-69.021,40.874-131.504,104.132-159.186c3.348-1.465,5.512-4.773,5.512-8.429V88.744h73.859c5.082,0,9.2-4.119,9.2-9.2
	s-4.118-9.2-9.2-9.2h-78.053c-14.321,0-25.971-11.651-25.971-25.971s11.651-25.972,25.972-25.972h136.471
	c14.321,0,25.971,11.651,25.971,25.971s-11.65,25.971-25.971,25.971h-26.523c-5.082,0-9.2,4.119-9.2,9.2s4.118,9.2,9.2,9.2h22.329
	V152.3c0,3.654,2.164,6.964,5.512,8.429c35.038,15.334,64.475,42.28,82.88,75.876c1.672,3.053,4.825,4.782,8.077,4.782
	c1.494,0,3.009-0.366,4.412-1.133c4.457-2.441,6.089-8.034,3.648-12.489c-19.377-35.368-49.812-64.071-86.128-81.372V86.397
	c17.517-5.938,30.165-22.527,30.165-42.026C368.607,19.905,348.701,0,324.236,0H187.764c-24.467,0-44.371,19.905-44.371,44.371
	c0,19.499,12.647,36.087,30.165,42.026v59.99c-66.81,31.764-109.643,99.219-109.643,173.528C63.915,425.831,150.083,512,256,512
	s192.085-86.169,192.085-192.085C448.085,299.62,444.933,279.633,438.718,260.51z"/>
<path d="M162.649,414.428c-3.315,3.852-2.879,9.66,0.972,12.975c25.704,22.12,58.514,34.304,92.383,34.304
	c32.521,0,64.315-11.335,89.524-31.918c24.846-20.286,42.254-48.597,49.017-79.71c2.152-9.839,3.242-19.989,3.242-30.167
	c0-10.138-1.095-20.287-3.254-30.167c-0.925-4.226-4.668-7.235-8.987-7.235c-0.022,0-0.042,0-0.063,0
	c-63.718,0.426-97.641,13.891-129.479,27.405c-31.838-13.513-65.763-26.98-129.49-27.405c-4.312-0.071-8.122,2.988-9.049,7.235
	c-2.159,9.881-3.254,20.03-3.254,30.166c0,28.375,8.389,55.775,24.262,79.236c1.779,2.629,4.677,4.047,7.629,4.046
	c1.774,0,3.567-0.512,5.147-1.581c4.209-2.847,5.313-8.567,2.464-12.776c-13.804-20.405-21.102-44.239-21.102-68.925
	c0-6.319,0.489-12.644,1.457-18.884c57.356,1.401,87.017,14.021,118.36,27.361c30.891,13.147,62.773,26.712,121.209,28.689
	c-7.22,22.737-21.058,43.202-39.744,58.459c-21.935,17.909-49.596,27.77-77.887,27.77c-29.467,0-58.014-10.601-80.38-29.85
	C171.772,410.14,165.962,410.576,162.649,414.428z M379.386,319.911c0,6.337-0.493,12.657-1.455,18.877
	c-44.885-1.092-72.824-9.063-97.875-18.878c25.042-9.809,52.968-17.786,97.873-18.883
	C378.897,307.266,379.386,313.591,379.386,319.911z"/>
<path d="M199.162,401.92c18.829,0,34.148-15.319,34.148-34.148c0-18.829-15.319-34.147-34.148-34.147s-34.147,15.318-34.147,34.147
	C165.015,386.601,180.333,401.92,199.162,401.92z M199.162,352.026c8.683,0,15.747,7.063,15.747,15.746s-7.065,15.747-15.747,15.747
	s-15.746-7.065-15.746-15.747S190.479,352.026,199.162,352.026z"/>
<path d="M315.164,384.579c0-15.465-12.582-28.047-28.046-28.047c-15.465,0-28.047,12.582-28.047,28.047
	c0,15.465,12.582,28.047,28.047,28.047C302.582,412.627,315.164,400.044,315.164,384.579z M277.471,384.579
	c0-5.319,4.328-9.647,9.647-9.647c5.319,0,9.646,4.328,9.646,9.647c0,5.319-4.327,9.647-9.646,9.647
	C281.799,394.226,277.471,389.898,277.471,384.579z"/>
</svg>