<svg fill="#fff" height="100px" width="100px" version="1.1" id="Layer_1" xmlns="http://www.w3.org/2000/svg" xmlns:xlink="http://www.w3.org/1999/xlink" 
	 viewBox="0 0 512 512" xml:space="preserve">
<g>
	<g>
		<path d="M232.727,46.545V23.273c6.423,0,11.636-5.213,11.636-11.636S239.151,0,232.727,0h-11.636h-46.545h-11.636
			c-6.423,0-11.636,5.213-11.636,11.636s5.213,11.636,11.636,11.636v23.273C143.663,46.545,128,62.208,128,81.455v139.636
			c0,6.423,5.213,11.636,11.636,11.636s11.636-5.213,11.636-11.636V81.455c0-6.412,5.225-11.636,11.636-11.636h11.636h46.545h11.636
			c6.412,0,11.636,5.225,11.636,11.636v11.636c0,6.423,5.213,11.636,11.636,11.636c6.423,0,11.636-5.213,11.636-11.636V81.455
			C267.636,62.208,251.974,46.545,232.727,46.545z M209.455,46.545h-23.273V23.273h23.273V46.545z"/>
	</g>
</g>
<g>
	<g>
		<path d="M290.909,139.636c-1.036,0-2.7,0-4.445,0C278.284,132.48,267.706,128,256,128c-25.67,0-46.545,20.876-46.545,46.545
			c0,21.62,14.895,39.692,34.909,44.893v45.452l-18.828,37.655H170.1l-11.636-23.273h50.991c6.423,0,11.636-5.213,11.636-11.636
			S215.878,256,209.455,256h-69.818c-4.038,0-7.773,2.095-9.903,5.516c-2.118,3.433-2.316,7.715-0.512,11.322l23.273,46.545
			c1.978,3.945,6.004,6.435,10.415,6.435h69.818c4.41,0,8.436-2.49,10.415-6.435l23.273-46.545c0.803-1.606,1.222-3.398,1.222-5.201
			v-48.198c7.087-1.839,13.463-5.306,18.828-9.984h4.445c57.74,0,104.727,46.988,104.727,104.727V384
			c0,17.385-12.777,31.837-29.417,34.479l-31.092-41.46c-2.199-2.932-5.644-4.655-9.309-4.655H81.455
			c-6.423,0-11.636,5.213-11.636,11.636c0,6.423,5.213,11.636,11.636,11.636H320l31.418,41.891c2.188,2.932,5.644,4.655,9.309,4.655
			c32.081,0,58.182-26.1,58.182-58.182v-69.818c0-67.258-52.177-122.449-118.167-127.5c1.059-3.898,1.804-7.913,1.804-12.137
			c0-3.852-0.605-7.54-1.489-11.124c78.673,5.26,141.126,70.772,141.126,150.761V384c0,44.916-36.55,81.455-81.455,81.455
			c-6.423,0-11.636,5.213-11.636,11.636v11.636H69.818v-34.909c0-6.412,5.225-11.636,11.636-11.636h197.818
			c6.423,0,11.636-5.213,11.636-11.636c0-6.423-5.213-11.636-11.636-11.636H81.455c-19.247,0-34.909,15.663-34.909,34.909v46.545
			c0,6.423,5.213,11.636,11.636,11.636h302.545c6.435,0,11.636-5.213,11.636-11.636v-12.276
			c52.294-5.807,93.091-50.269,93.091-104.087v-69.818C465.455,217.937,387.153,139.636,290.909,139.636z M256,197.818
			c-12.835,0-23.273-10.438-23.273-23.273s10.438-23.273,23.273-23.273c12.835,0,23.273,10.438,23.273,23.273
			S268.835,197.818,256,197.818z"/>
	</g>
</g>
</svg>