<svg fill="#000000" height="800px" width="800px" version="1.1" id="Layer_1" xmlns="http://www.w3.org/2000/svg" xmlns:xlink="http://www.w3.org/1999/xlink" 
	 viewBox="0 0 512 512" xml:space="preserve">
<g>
	<g>
		<path d="M194.85,91.056c-4.948,0-8.959,4.011-8.959,8.959c0,4.948,4.011,8.959,8.959,8.959c18.133,0,32.886,14.753,32.886,32.884
			c0,18.133-14.753,32.886-32.886,32.886c-18.133,0-32.886-14.753-32.886-32.886c0-8.785,3.421-17.042,9.632-23.253
			c3.499-3.499,3.499-9.172,0-12.671c-3.499-3.498-9.172-3.499-12.67,0c-9.596,9.596-14.88,22.353-14.88,35.923
			c0,28.013,22.791,50.804,50.804,50.804s50.804-22.791,50.804-50.804C245.653,113.847,222.863,91.056,194.85,91.056z"/>
	</g>
</g>
<g>
	<g>
		<path d="M400.309,296.516c-28.013,0-50.803,22.791-50.803,50.803c0,28.013,22.789,50.804,50.803,50.804
			s50.803-22.791,50.803-50.804C451.113,319.306,428.322,296.516,400.309,296.516z M400.309,380.204
			c-18.133,0-32.884-14.753-32.884-32.886c0-18.133,14.753-32.884,32.884-32.884s32.884,14.753,32.884,32.884
			C433.195,365.453,418.442,380.204,400.309,380.204z"/>
	</g>
</g>
<g>
	<g>
		<path d="M503.04,50.234c-4.949,0-8.959,4.011-8.959,8.959v227.481c-3.37-5.202-7.166-10.164-11.416-14.802
			c-3.345-3.649-9.012-3.895-12.659-0.551c-3.648,3.342-3.895,9.009-0.552,12.657c15.88,17.326,24.625,39.821,24.625,63.34
			c0,51.706-42.066,93.771-93.771,93.771c-51.704,0-93.77-42.066-93.77-93.771c0-51.706,42.066-93.77,93.77-93.77
			c15.341,0,29.959,3.584,43.448,10.649c4.382,2.295,9.798,0.606,12.094-3.778c2.296-4.383,0.604-9.798-3.778-12.094
			c-15.854-8.306-33.754-12.696-51.763-12.696c-39.26,0-73.849,20.365-93.77,51.081V141.859
			c0-61.586-50.104-111.689-111.689-111.689S83.159,80.273,83.159,141.859v153.253c-13.216,3.299-23.639,13.722-26.938,26.938
			h-26.68c-4.451,0-8.227,3.267-8.866,7.672L0.093,471.586c-0.374,2.573,0.391,5.182,2.092,7.148
			c1.702,1.966,4.174,3.096,6.774,3.096h166.324c2.601,0,5.073-1.13,6.774-3.096c1.701-1.966,2.464-4.575,2.092-7.149l-6.132-42.263
			c-0.711-4.896-5.255-8.284-10.154-7.579c-4.896,0.711-8.29,5.256-7.579,10.154l4.646,32.017H19.311l17.983-123.945h109.653
			l8.209,56.577c0.711,4.896,5.263,8.286,10.152,7.581c4.898-0.711,8.29-5.256,7.581-10.152l-9.322-64.25
			c-0.639-4.405-4.415-7.673-8.866-7.673h-26.682c-3.299-13.216-13.722-23.639-26.938-26.938v-92.646
			c19.923,30.716,54.512,51.081,93.771,51.081c39.26,0,73.849-20.365,93.771-51.081V347.32c0,61.586,50.103,111.689,111.688,111.689
			S512,408.905,512,347.32V59.193C511.999,54.245,507.989,50.234,503.04,50.234z M108.957,322.05H75.282
			c3.215-6.017,9.553-10.123,16.838-10.123C99.405,311.928,105.743,316.033,108.957,322.05z M194.85,235.63
			c-51.706,0-93.771-42.066-93.771-93.771c0-51.706,42.066-93.771,93.771-93.771c51.706,0,93.771,42.066,93.771,93.771
			C288.621,193.564,246.555,235.63,194.85,235.63z"/>
	</g>
</g>
<g>
	<g>
		<path d="M113.94,374.451H70.3c-4.948,0-8.959,4.011-8.959,8.959c0,4.948,4.011,8.959,8.959,8.959h43.641
			c4.948,0,8.959-4.011,8.959-8.959C122.9,378.462,118.888,374.451,113.94,374.451z"/>
	</g>
</g>
<g>
	<g>
		<path d="M113.94,411.513H70.3c-4.948,0-8.959,4.011-8.959,8.959c0,4.948,4.011,8.959,8.959,8.959h43.641
			c4.948,0,8.959-4.011,8.959-8.959C122.9,415.524,118.888,411.513,113.94,411.513z"/>
	</g>
</g>
</svg>